<?xml version="1.0" encoding="UTF-8" standalone="no"?>
<!-- Created with Inkscape (http://www.inkscape.org/) -->

<svg
   xmlns:dc="http://purl.org/dc/elements/1.1/"
   xmlns:cc="http://creativecommons.org/ns#"
   xmlns:rdf="http://www.w3.org/1999/02/22-rdf-syntax-ns#"
   xmlns:svg="http://www.w3.org/2000/svg"
   xmlns="http://www.w3.org/2000/svg"
   xmlns:sodipodi="http://sodipodi.sourceforge.net/DTD/sodipodi-0.dtd"
   xmlns:inkscape="http://www.inkscape.org/namespaces/inkscape"
   width="100mm"
   height="100mm"
   viewBox="0 0 100 100"
   version="1.1"
   id="svg8"
   inkscape:version="0.92.3 (2405546, 2018-03-11)"
   sodipodi:docname="arduino_support.svg">
  <defs
     id="defs2" />
  <sodipodi:namedview
     id="base"
     pagecolor="#ffffff"
     bordercolor="#666666"
     borderopacity="1.0"
     inkscape:pageopacity="0.0"
     inkscape:pageshadow="2"
     inkscape:zoom="1.8101934"
     inkscape:cx="201.65002"
     inkscape:cy="163.89473"
     inkscape:document-units="mm"
     inkscape:current-layer="layer1"
     showgrid="false"
     inkscape:showpageshadow="false"
     inkscape:window-width="1920"
     inkscape:window-height="1021"
     inkscape:window-x="0"
     inkscape:window-y="30"
     inkscape:window-maximized="1"
     showguides="true"
     inkscape:guide-bbox="true"
     units="cm">
    <sodipodi:guide
       position="50,50"
       orientation="1,0"
       id="guide855"
       inkscape:locked="false"
       inkscape:label=""
       inkscape:color="rgb(0,0,255)" />
    <sodipodi:guide
       position="50,50"
       orientation="0,1"
       id="guide857"
       inkscape:locked="false" />
    <sodipodi:guide
       position="50,73.999999"
       orientation="0,1"
       id="guide859"
       inkscape:locked="false"
       inkscape:label=""
       inkscape:color="rgb(0,0,255)" />
    <sodipodi:guide
       position="50,26"
       orientation="0,1"
       id="guide861"
       inkscape:locked="false"
       inkscape:label=""
       inkscape:color="rgb(0,0,255)" />
    <sodipodi:guide
       position="76.499999,73.999999"
       orientation="1,0"
       id="guide863"
       inkscape:locked="false"
       inkscape:label=""
       inkscape:color="rgb(0,0,255)" />
    <sodipodi:guide
       position="25.5,50"
       orientation="1,0"
       id="guide836"
       inkscape:locked="false"
       inkscape:label=""
       inkscape:color="rgb(0,0,255)" />
    <sodipodi:guide
       position="25.5,69.499999"
       orientation="0,1"
       id="guide838"
       inkscape:locked="false"
       inkscape:label=""
       inkscape:color="rgb(0,0,255)" />
    <sodipodi:guide
       position="25.5,41"
       orientation="0,1"
       id="guide858"
       inkscape:locked="false"
       inkscape:label=""
       inkscape:color="rgb(0,0,255)" />
    <sodipodi:guide
       position="50,71.999999"
       orientation="0,1"
       id="guide882"
       inkscape:locked="false"
       inkscape:label=""
       inkscape:color="rgb(255,0,2)" />
    <sodipodi:guide
       position="81.999999,71.999999"
       orientation="1,0"
       id="guide884"
       inkscape:locked="false"
       inkscape:label=""
       inkscape:color="rgb(255,0,32)" />
    <sodipodi:guide
       position="81.999999,28"
       orientation="0,1"
       id="guide886"
       inkscape:locked="false"
       inkscape:label=""
       inkscape:color="rgb(255,3,0)" />
    <sodipodi:guide
       position="18,71.999999"
       orientation="1,0"
       id="guide896"
       inkscape:locked="false"
       inkscape:label=""
       inkscape:color="rgb(255,0,2)" />
  </sodipodi:namedview>
  <metadata
     id="metadata5">
    <rdf:RDF>
      <cc:Work
         rdf:about="">
        <dc:format>image/svg+xml</dc:format>
        <dc:type
           rdf:resource="http://purl.org/dc/dcmitype/StillImage" />
        <dc:title></dc:title>
      </cc:Work>
    </rdf:RDF>
  </metadata>
  <g
     inkscape:label="arduino"
     inkscape:groupmode="layer"
     id="layer1"
     transform="translate(0,-197)"
     style="display:inline">
    <path
       id="path904"
       style="opacity:1;vector-effect:none;fill:none;fill-opacity:1;fill-rule:nonzero;stroke:#0cff30;stroke-width:0.1;stroke-linecap:butt;stroke-linejoin:miter;stroke-miterlimit:4;stroke-dasharray:none;stroke-dashoffset:0;stroke-opacity:1;paint-order:normal"
       d="m 21,269 a 3,3 0 0 1 -3,3 3,3 0 0 1 -3,-3 3,3 0 0 1 3,-3 3,3 0 0 1 3,3 z m -1.5,0 A 1.5,1.5 0 0 1 18,270.5 1.5,1.5 0 0 1 16.5,269 1.5,1.5 0 0 1 18,267.5 1.5,1.5 0 0 1 19.5,269 Z M 21,225 a 3,3 0 0 1 -3,3 3,3 0 0 1 -3,-3 3,3 0 0 1 3,-3 3,3 0 0 1 3,3 z m -1.5,0 a 1.5,1.5 0 0 1 -1.5,1.5 1.5,1.5 0 0 1 -1.5,-1.5 1.5,1.5 0 0 1 1.5,-1.5 1.5,1.5 0 0 1 1.5,1.5 z m 65.1,44 a 2.5999999,2.5999999 0 0 1 -2.6,2.6 2.5999999,2.5999999 0 0 1 -2.6,-2.6 2.5999999,2.5999999 0 0 1 2.6,-2.6 2.5999999,2.5999999 0 0 1 2.6,2.6 z m -1.1,0 a 1.5,1.5 0 0 1 -1.5,1.5 1.5,1.5 0 0 1 -1.5,-1.5 1.5,1.5 0 0 1 1.5,-1.5 1.5,1.5 0 0 1 1.5,1.5 z m 1.1,-44 a 2.5999999,2.5999999 0 0 1 -2.6,2.6 2.5999999,2.5999999 0 0 1 -2.6,-2.6 2.5999999,2.5999999 0 0 1 2.6,-2.6 2.5999999,2.5999999 0 0 1 2.6,2.6 z m -1.1,0 a 1.5,1.5 0 0 1 -1.5,1.5 1.5,1.5 0 0 1 -1.5,-1.5 1.5,1.5 0 0 1 1.5,-1.5 1.5,1.5 0 0 1 1.5,1.5 z m -55.4,31 a 2.5999999,2.5999999 0 0 1 -2.6,2.6 2.5999999,2.5999999 0 0 1 -2.6,-2.6 2.5999999,2.5999999 0 0 1 2.6,-2.6 2.5999999,2.5999999 0 0 1 2.6,2.6 z m -1.1,0 a 1.5,1.5 0 0 1 -1.5,1.5 1.5,1.5 0 0 1 -1.5,-1.5 1.5,1.5 0 0 1 1.5,-1.5 1.5,1.5 0 0 1 1.5,1.5 z m 1.1,-28.5 a 2.5999999,2.5999999 0 0 1 -2.6,2.6 2.5999999,2.5999999 0 0 1 -2.6,-2.6 2.5999999,2.5999999 0 0 1 2.6,-2.6 2.5999999,2.5999999 0 0 1 2.6,2.6 z m -1.1,0 A 1.5,1.5 0 0 1 25.5,229 1.5,1.5 0 0 1 24,227.5 1.5,1.5 0 0 1 25.5,226 1.5,1.5 0 0 1 27,227.5 Z M 79.5,271 a 3,3 0 0 1 -3,3 3,3 0 0 1 -3,-3 3,3 0 0 1 3,-3 3,3 0 0 1 3,3 z m 0,-48 a 3,3 0 0 1 -3,3 3,3 0 0 1 -3,-3 3,3 0 0 1 3,-3 3,3 0 0 1 3,3 z M 78,271 a 1.5,1.5 0 0 1 -1.5,1.5 1.5,1.5 0 0 1 -1.5,-1.5 1.5,1.5 0 0 1 1.5,-1.5 1.5,1.5 0 0 1 1.5,1.5 z m 0,-48 a 1.5,1.5 0 0 1 -1.5,1.5 1.5,1.5 0 0 1 -1.5,-1.5 1.5,1.5 0 0 1 1.5,-1.5 1.5,1.5 0 0 1 1.5,1.5 z m -63.950001,-3.5 h 71.900002 v 55 H 14.049999 Z" />
  </g>
</svg>
